<?xml version="1.0" encoding="iso-8859-1"?>
<!-- Generator: Adobe Illustrator 19.0.0, SVG Export Plug-In . SVG Version: 6.00 Build 0)  -->
<svg version="1.1" id="Capa_1" xmlns="http://www.w3.org/2000/svg" xmlns:xlink="http://www.w3.org/1999/xlink" x="0px" y="0px"
	 viewBox="0 0 511.999 511.999" style="enable-background:new 0 0 511.999 511.999;" xml:space="preserve">
<circle style="fill:#EA971E;" cx="255.997" cy="255.997" r="255.997"/>
<path style="fill:#C27526;" d="M359.142,88.834c-7.097,7.097-210.246,210.246-220.026,220.026
	c-2.303,9.907-17.803,76.591-20.087,86.422l115.843,115.843c6.968,0.57,14.012,0.873,21.127,0.873c141.385,0,256-114.615,256-256
	c0-4.949-0.156-9.861-0.432-14.741C450.046,179.738,366.184,95.876,359.142,88.834z"/>
<rect x="210.63" y="136.21" transform="matrix(-0.7071 -0.7071 0.7071 -0.7071 258.0762 620.4474)" style="fill:#F6D433;" width="93.814" height="241.13"/>
<rect x="250.675" y="152.778" transform="matrix(-0.7071 -0.7071 0.7071 -0.7071 274.6793 660.4617)" style="fill:#E5BF2B;" width="46.902" height="241.13"/>
<rect x="303.366" y="147.525" transform="matrix(-0.7071 -0.7071 0.7071 -0.7071 481.959 527.7133)" style="fill:#C6C5CA;" width="93.814" height="33.029"/>
<rect x="343.403" y="164.111" transform="matrix(-0.7071 -0.7071 0.7071 -0.7071 498.5382 567.7515)" style="fill:#ACACB2;" width="46.902" height="33.029"/>
<rect x="330.216" y="115.715" transform="matrix(-0.7071 -0.7071 0.7071 -0.7071 546.7844 500.8544)" style="fill:#E57654;" width="93.814" height="42.938"/>
<rect x="370.26" y="132.284" transform="matrix(-0.7071 -0.7071 0.7071 -0.7071 563.3875 540.8687)" style="fill:#BF2717;" width="46.902" height="42.938"/>
<polygon style="fill:#E3E3F2;" points="205.451,375.195 139.117,308.861 119.029,395.283 "/>
<polygon style="fill:#D7CCBD;" points="119.029,395.283 205.451,375.195 172.284,342.028 "/>
<polygon style="fill:#57565C;" points="126.064,365.019 119.029,395.283 149.293,388.248 "/>
<g>
</g>
<g>
</g>
<g>
</g>
<g>
</g>
<g>
</g>
<g>
</g>
<g>
</g>
<g>
</g>
<g>
</g>
<g>
</g>
<g>
</g>
<g>
</g>
<g>
</g>
<g>
</g>
<g>
</g>
</svg>
