<?xml version="1.0" encoding="iso-8859-1"?>
<!-- Generator: Adobe Illustrator 19.0.0, SVG Export Plug-In . SVG Version: 6.00 Build 0)  -->
<svg version="1.1" id="Layer_1" xmlns="http://www.w3.org/2000/svg" xmlns:xlink="http://www.w3.org/1999/xlink" x="0px" y="0px"
	 viewBox="0 0 512 512" style="enable-background:new 0 0 512 512;" xml:space="preserve">
<path style="fill:#7F838C;" d="M204.501,392.004h-89.997c-8.291,0-15-6.709-15-15v-59.998c0-8.291,6.709-15,15-15h89.997
	c8.291,0,14.999,6.709,14.999,15v59.998C219.5,385.295,212.792,392.004,204.501,392.004z"/>
<path style="fill:#757982;" d="M204.501,302.007h-44.999v89.997h44.999c8.291,0,14.999-6.709,14.999-15v-59.998
	C219.5,308.716,212.792,302.007,204.501,302.007z"/>
<path style="fill:#5C5F66;" d="M256.076,512H62.929c-13.945,0-26.879-6.313-35.463-17.299c-8.585-11.001-11.572-25.077-8.188-38.612
	l15-59.998c5.01-20.067,22.968-34.086,43.651-34.086h163.149c20.683,0,38.642,14.019,43.651,34.071l14.999,60.013
	c3.384,13.535,0.395,27.611-8.188,38.612C282.955,505.686,270.021,512,256.076,512z"/>
<path style="fill:#53565C;" d="M284.727,396.076c-5.01-20.053-22.968-34.071-43.651-34.071h-81.574V512h96.574
	c13.945,0,26.879-6.313,35.463-17.299c8.583-11.001,11.572-25.077,8.188-38.612L284.727,396.076z"/>
<path style="fill:#FCB33B;" d="M204.501,452.002h-89.997c-8.291,0-15-6.709-15-14.999s6.709-15,15-15h89.997
	c8.291,0,14.999,6.709,14.999,15S212.792,452.002,204.501,452.002z"/>
<path style="fill:#F69838;" d="M204.501,422.003h-44.999v29.999h44.999c8.291,0,14.999-6.709,14.999-14.999
	S212.792,422.003,204.501,422.003z"/>
<path style="fill:#979CA7;" d="M150.494,271.993c-1.318,0-2.666-0.176-3.984-0.542c-7.998-2.197-12.686-10.444-10.488-18.427
	c7.236-26.352,20.199-51.598,37.484-69.249c5.815-5.903,15.307-6.021,21.21-0.234c5.933,5.801,6.021,15.292,0.234,21.21
	c-13.74,14.033-24.11,34.782-30.014,56.212C163.105,267.628,157.071,271.993,150.494,271.993z"/>
<path style="fill:#C4CAD9;" d="M479.106,0.632c-128.8-8.174-247.448,63.44-309.306,186.835c-4.736,9.41,1.55,20.8,12.188,21.679
	c126.929,10.265,255.579-61.765,310.859-187.435C497.221,11.825,489.379,0.632,479.106,0.632z"/>
<path style="fill:#5C5F66;" d="M204.501,332.006h-89.997c-24.813,0-44.999-20.185-44.999-44.999s20.185-44.998,44.999-44.998h89.997
	c24.813,0,44.999,20.185,44.999,44.998S229.314,332.006,204.501,332.006z"/>
<path style="fill:#53565C;" d="M204.501,242.009h-44.999v89.997h44.999c24.813,0,44.999-20.185,44.999-44.999
	S229.314,242.009,204.501,242.009z"/>
<g>
</g>
<g>
</g>
<g>
</g>
<g>
</g>
<g>
</g>
<g>
</g>
<g>
</g>
<g>
</g>
<g>
</g>
<g>
</g>
<g>
</g>
<g>
</g>
<g>
</g>
<g>
</g>
<g>
</g>
</svg>
